<?xml version="1.0" standalone="no"?>
<!DOCTYPE svg PUBLIC "-//W3C//DTD SVG 20010904//EN"
 "http://www.w3.org/TR/2001/REC-SVG-20010904/DTD/svg10.dtd">
<svg version="1.0" xmlns="http://www.w3.org/2000/svg"
 width="1479.000000pt" height="1479.000000pt" viewBox="0 0 1479.000000 1479.000000"
 preserveAspectRatio="xMidYMid meet">
<metadata>
Created by potrace 1.14, written by Peter Selinger 2001-2017
</metadata>
<g transform="translate(0.000000,1479.000000) scale(0.100000,-0.100000)"
fill="#000000" stroke="none">
<path d="M9028 13057 c-17 -16 -34 -50 -48 -98 -59 -207 -180 -527 -310 -819
-92 -208 -360 -712 -617 -1160 -33 -58 -72 -126 -86 -152 -86 -155 -364 -624
-406 -685 -50 -71 -50 -71 -118 -86 -37 -9 -95 -18 -128 -22 -33 -3 -91 -10
-130 -16 -38 -5 -88 -12 -110 -15 -22 -2 -51 -7 -65 -9 -43 -7 -163 -26 -195
-31 -82 -12 -246 -44 -390 -74 -55 -12 -111 -24 -125 -26 -81 -16 -448 -110
-640 -164 -235 -66 -514 -159 -795 -265 -377 -142 -787 -334 -1130 -530 -93
-54 -179 -103 -190 -109 -11 -6 -31 -18 -45 -27 -14 -9 -92 -58 -175 -109
-447 -278 -875 -596 -1195 -888 -181 -165 -721 -714 -760 -772 -3 -4 -33 -39
-67 -76 -84 -94 -241 -289 -334 -414 -311 -419 -617 -947 -783 -1348 -73 -176
-135 -353 -150 -432 -3 -14 -10 -52 -17 -85 -18 -82 -18 -537 -1 -628 29 -156
131 -433 224 -607 95 -179 174 -282 378 -493 276 -286 429 -420 615 -536 39
-25 81 -51 95 -60 160 -100 495 -257 665 -312 134 -43 504 -134 665 -163 14
-2 45 -9 70 -15 50 -11 42 -10 260 -46 85 -14 180 -30 210 -35 204 -34 247
-35 1040 -35 691 0 934 4 1130 19 114 9 218 18 250 21 19 1 71 6 115 10 44 3
94 8 110 10 17 2 62 7 100 10 39 3 88 8 110 10 22 3 65 7 95 10 30 3 71 7 90
9 19 3 62 7 95 10 33 4 76 8 95 11 36 4 90 11 175 20 73 8 214 25 258 30 90
12 115 15 172 20 33 3 71 8 85 10 31 5 78 11 195 25 50 6 155 19 235 30 80 11
165 22 190 25 60 7 113 14 184 25 32 5 62 7 67 5 4 -3 10 -1 14 5 4 6 10 8 15
5 4 -2 32 0 61 5 30 5 74 12 99 14 39 5 95 12 293 41 60 8 99 14 152 20 28 4
91 13 140 21 50 7 110 16 135 19 42 5 105 14 140 20 8 2 38 6 65 9 28 4 61 9
75 11 40 6 323 47 347 50 13 2 40 6 60 9 21 4 52 8 68 11 17 2 46 6 65 9 47 8
356 55 400 62 19 2 78 11 130 20 52 8 112 17 135 20 22 2 92 13 155 24 63 11
133 22 155 25 22 2 51 7 65 10 14 3 43 7 65 10 22 3 51 7 65 10 14 2 39 7 55
9 17 3 140 23 275 45 135 22 265 43 290 46 25 3 52 8 60 10 8 2 35 7 60 10 25
3 52 8 60 10 8 2 35 7 60 10 25 4 203 33 395 65 193 32 364 61 380 63 87 15
284 48 308 52 15 3 39 7 55 10 15 3 47 8 72 11 25 3 48 8 51 10 3 1 28 6 55
10 47 6 59 8 114 18 14 3 41 8 60 10 19 3 45 8 56 10 12 2 37 7 55 10 19 3 45
8 59 10 14 3 90 16 170 30 80 14 154 27 165 29 38 8 90 17 130 22 22 4 47 8
55 10 8 3 33 7 55 10 22 4 85 15 140 25 55 10 152 28 215 40 63 12 149 28 190
37 41 8 86 17 100 19 55 10 160 37 160 42 0 5 -180 -5 -217 -12 -10 -2 -47 -7
-83 -11 -36 -3 -77 -8 -91 -11 -15 -2 -47 -6 -70 -9 -24 -3 -55 -7 -69 -10
-14 -2 -50 -7 -80 -10 -30 -4 -127 -17 -215 -30 -88 -13 -185 -27 -215 -30
-30 -4 -57 -8 -60 -10 -3 -1 -30 -6 -61 -9 -31 -4 -65 -8 -75 -10 -11 -2 -39
-7 -64 -11 -25 -3 -56 -8 -70 -10 -14 -3 -47 -7 -75 -10 -27 -3 -57 -8 -65
-10 -8 -2 -35 -7 -60 -10 -25 -3 -70 -10 -100 -15 -30 -5 -73 -12 -95 -15 -22
-3 -65 -10 -95 -15 -30 -5 -75 -12 -100 -15 -25 -3 -56 -8 -70 -10 -14 -3 -38
-7 -55 -9 -40 -6 -116 -18 -135 -21 -40 -7 -98 -16 -130 -20 -30 -4 -311 -47
-390 -60 -14 -2 -47 -7 -75 -10 -27 -4 -57 -8 -65 -10 -13 -4 -38 -7 -125 -20
-11 -1 -42 -6 -70 -9 -27 -4 -60 -9 -73 -12 -12 -2 -42 -7 -66 -10 -24 -2 -54
-7 -67 -9 -13 -3 -41 -7 -64 -10 -22 -3 -65 -10 -95 -15 -30 -5 -75 -12 -100
-15 -25 -4 -146 -21 -270 -40 -124 -18 -241 -36 -260 -38 -46 -7 -234 -34
-285 -42 -22 -4 -53 -8 -70 -11 -16 -2 -41 -6 -55 -9 -14 -2 -47 -7 -75 -10
-27 -3 -57 -8 -65 -10 -8 -2 -36 -6 -62 -9 -26 -3 -76 -10 -110 -15 -35 -6
-83 -13 -108 -16 -25 -3 -58 -8 -75 -11 -64 -10 -81 -13 -125 -19 -25 -3 -57
-8 -71 -10 -14 -3 -43 -7 -65 -10 -37 -4 -159 -22 -214 -30 -14 -2 -47 -7 -75
-10 -27 -3 -72 -10 -100 -15 -27 -5 -74 -12 -104 -15 -30 -4 -61 -8 -70 -10
-44 -8 -131 -20 -206 -30 -27 -3 -77 -10 -110 -15 -33 -5 -78 -11 -100 -14
-22 -4 -166 -24 -320 -45 -154 -22 -302 -43 -330 -46 -27 -4 -77 -10 -110 -15
-33 -5 -82 -12 -110 -16 -27 -3 -57 -8 -66 -9 -9 -2 -40 -6 -70 -10 -30 -3
-65 -8 -79 -10 -14 -2 -43 -7 -65 -9 -22 -3 -78 -10 -125 -16 -47 -6 -103 -13
-125 -16 -22 -2 -56 -6 -75 -9 -19 -3 -53 -7 -75 -9 -22 -3 -58 -8 -80 -10
-52 -7 -196 -24 -265 -31 -30 -3 -71 -8 -90 -10 -19 -2 -64 -6 -100 -10 -36
-4 -76 -8 -90 -10 -14 -1 -59 -6 -100 -10 -41 -3 -86 -8 -100 -10 -14 -2 -61
-7 -105 -10 -44 -3 -91 -7 -105 -10 -14 -2 -63 -7 -110 -10 -47 -4 -92 -8
-100 -10 -8 -2 -62 -6 -120 -10 -115 -8 -140 -10 -250 -20 -385 -36 -1415 -42
-1801 -10 -30 2 -83 7 -119 9 -36 3 -83 8 -105 10 -22 3 -67 7 -100 11 -89 8
-144 15 -205 25 -30 5 -75 12 -100 15 -25 3 -79 12 -120 20 -41 8 -91 17 -110
20 -19 3 -42 8 -50 10 -8 2 -29 7 -46 10 -93 15 -381 94 -536 146 -308 103
-574 227 -800 375 -299 194 -664 553 -844 829 -139 213 -279 572 -302 770 -8
80 -8 353 1 440 18 169 73 367 162 580 40 97 213 452 268 550 18 33 46 83 61
110 59 105 261 403 358 530 5 6 72 93 149 195 138 180 290 369 355 440 17 19
58 64 90 100 67 75 545 554 649 650 293 271 534 456 1000 767 533 355 878 545
1370 753 552 233 965 377 1400 487 99 25 191 47 205 50 14 2 54 11 90 19 54
13 393 81 480 97 14 3 66 13 115 22 50 10 99 19 110 20 11 2 38 7 60 10 56 10
335 14 340 5 6 -10 -856 -1295 -885 -1320 -3 -3 -28 -36 -55 -75 -40 -58 -168
-232 -197 -270 -5 -5 -52 -66 -105 -135 -102 -132 -507 -639 -571 -715 -10
-11 -84 -101 -167 -200 -125 -151 -475 -564 -510 -601 -5 -6 -35 -40 -65 -74
-78 -89 -490 -552 -509 -571 -9 -9 -56 -61 -106 -115 -134 -147 -268 -277
-377 -366 -54 -43 -102 -87 -108 -98 -24 -45 1 -110 51 -130 27 -12 36 -11 68
6 52 27 258 235 522 525 39 44 153 170 172 193 10 12 33 37 50 56 18 19 66 73
107 120 41 47 86 99 101 115 39 44 316 361 374 430 28 32 55 63 60 69 17 18
298 357 340 411 22 28 43 52 46 55 3 3 101 124 218 270 117 146 218 272 224
280 47 58 322 420 404 530 258 349 553 779 929 1355 160 244 174 262 226 275
60 17 418 14 598 -5 19 -2 64 -6 100 -9 117 -11 211 -29 227 -44 14 -15 14
-89 -2 -232 -4 -41 -16 -180 -20 -230 -1 -19 -5 -80 -9 -135 -4 -55 -9 -122
-11 -150 -2 -27 -7 -90 -10 -140 -3 -49 -8 -117 -10 -150 -8 -119 -16 -232
-20 -315 -2 -47 -7 -123 -10 -170 -3 -47 -7 -121 -10 -165 -2 -44 -8 -136 -12
-205 -10 -153 -10 -1642 0 -2095 7 -318 9 -372 22 -660 8 -174 22 -388 30
-475 2 -19 7 -71 10 -115 4 -44 8 -87 10 -95 2 -8 6 -44 10 -80 3 -36 11 -94
16 -130 6 -36 12 -77 14 -92 2 -15 8 -51 14 -80 6 -29 13 -67 16 -85 3 -17 12
-59 21 -92 8 -34 17 -69 19 -78 26 -129 114 -406 172 -543 105 -246 234 -417
494 -655 116 -106 216 -168 340 -210 62 -21 90 -25 198 -25 213 1 345 28 503
106 339 166 717 647 908 1158 87 232 198 592 225 725 20 99 45 234 49 266 4
23 8 50 10 61 2 12 7 45 11 75 3 30 11 83 16 119 6 36 12 90 15 120 2 30 6 66
9 80 3 14 7 61 10 105 3 44 8 94 10 110 11 92 20 329 20 535 0 240 -7 379 -30
575 -3 22 -7 65 -10 95 -4 30 -8 71 -11 90 -17 121 -25 181 -34 230 -5 30 -12
71 -15 90 -3 19 -8 42 -10 50 -2 8 -7 29 -10 46 -10 62 -55 241 -90 364 -148
512 -401 1001 -695 1344 -42 50 -281 290 -330 331 -132 114 -368 278 -550 383
-208 119 -363 184 -735 307 -324 108 -324 108 -332 148 -4 17 -7 34 -6 37 0 3
4 37 8 75 3 39 8 84 10 100 2 17 7 57 10 90 3 33 10 94 15 135 5 41 12 95 15
120 3 25 7 62 10 83 3 20 7 54 10 75 3 20 10 71 15 112 6 41 13 93 16 115 2
22 7 51 9 65 2 14 7 52 11 85 3 33 8 69 10 79 2 11 8 56 14 100 6 45 13 92 15
106 8 50 45 317 50 365 3 28 8 61 10 75 13 89 26 181 30 220 2 25 7 63 10 85
10 66 13 87 20 145 3 30 10 80 15 110 5 30 12 78 15 105 12 93 16 120 20 144
2 13 7 45 11 70 4 25 8 55 10 66 2 11 7 36 10 55 4 19 9 44 11 55 3 11 7 47
10 80 7 80 -12 106 -83 112 -42 4 -53 2 -76 -20z m-162 -986 c-3 -38 -8 -84
-11 -103 -2 -18 -7 -55 -9 -83 -6 -57 -12 -114 -26 -230 -5 -44 -12 -109 -15
-145 -3 -36 -8 -72 -10 -80 -2 -8 -7 -46 -10 -85 -4 -38 -8 -77 -10 -85 -2 -8
-7 -44 -10 -80 -4 -36 -8 -76 -10 -90 -2 -14 -14 -108 -26 -210 -26 -228 -26
-223 -33 -290 -4 -30 -13 -109 -22 -175 -8 -66 -17 -138 -19 -160 -3 -22 -7
-56 -10 -75 -3 -19 -8 -62 -11 -95 -3 -33 -11 -63 -17 -66 -5 -4 -33 -5 -61
-4 -28 2 -116 6 -196 10 -80 3 -176 8 -215 10 -239 15 -416 28 -447 34 -8 1
13 42 157 291 65 113 170 295 233 405 63 110 129 225 147 255 18 30 44 75 57
100 14 25 47 83 75 130 65 112 277 487 322 570 81 149 176 320 179 320 2 0 1
-31 -2 -69z m19 -2215 c143 -32 434 -129 619 -206 233 -97 516 -268 746 -449
79 -62 370 -344 405 -392 6 -8 28 -36 51 -64 186 -228 377 -576 501 -915 97
-264 207 -688 238 -920 2 -14 6 -38 9 -55 6 -31 11 -63 20 -127 3 -21 8 -68
11 -105 3 -37 8 -88 10 -113 19 -195 23 -515 11 -782 -4 -86 -8 -165 -10 -175
-2 -10 -7 -63 -10 -118 -4 -55 -9 -111 -11 -125 -2 -14 -6 -52 -10 -85 -18
-181 -50 -390 -91 -600 -53 -271 -112 -477 -207 -720 -106 -271 -283 -591
-424 -766 -207 -256 -406 -407 -605 -459 -57 -15 -99 -18 -198 -16 -140 4
-221 21 -317 68 -233 116 -518 449 -640 748 -58 141 -151 443 -179 583 -2 12
-6 31 -8 42 -24 110 -47 234 -56 300 -7 44 -13 87 -15 95 -1 8 -6 44 -10 80
-3 36 -8 76 -10 90 -6 45 -22 249 -29 380 -35 603 -41 868 -41 1845 0 772 5
1139 20 1430 11 211 16 305 20 355 2 30 7 93 10 140 3 47 8 105 10 130 2 25 7
83 10 130 6 82 8 112 19 230 3 30 8 91 11 135 4 44 8 91 10 105 2 14 7 61 11
105 6 80 8 95 20 150 15 68 20 71 109 51z"/>
</g>
</svg>
